<svg viewBox="0 0 1024 1024" version="1.1" xmlns="http://www.w3.org/2000/svg">
	<path
		d="M512 1024C229.216 1024 0 794.784 0 512S229.216 0 512 0s512 229.216 512 512-229.216 512-512 512z m281.408-696.64a36.224 36.224 0 0 0-51.264 0l-315.872 315.872-145.088-145.12a36.256 36.256 0 0 0-51.232 51.264l169.888 169.888c0.288 0.32 0.384 0.704 0.672 0.992 10.656 10.656 26.24 13.28 39.36 7.872a35.84 35.84 0 0 0 12.096-7.968l0.256-0.352 341.184-341.184a36.224 36.224 0 0 0 0-51.264z"
		fill="#ff6600"></path>
</svg>
