<svg viewBox="0 0 1024 1024" version="1.1" xmlns="http://www.w3.org/2000/svg">
	<path
		d="M1010.036364 382.836364H1024V171.054545c0-40.727273-33.745455-74.472727-76.8-74.472727H76.8C33.745455 96.581818 0 130.327273 0 171.054545v209.454546l11.636364 2.327273c73.309091 10.472727 124.509091 70.981818 124.509091 143.127272C134.981818 596.945455 81.454545 655.127273 11.636364 669.090909l-11.636364 2.327273v181.527273c0 40.727273 33.745455 74.472727 76.8 74.472727h871.563636c41.890909 0 76.8-32.581818 76.8-76.8V673.745455h-13.963636c-76.8-8.145455-136.145455-68.654545-136.145455-145.454546-1.163636-76.8 58.181818-139.636364 134.981819-145.454545z m-721.454546 491.054545c0 8.145455-5.818182 13.963636-13.963636 13.963636h-11.636364c-8.145455 0-13.963636-5.818182-13.963636-13.963636v-50.036364c0-8.145455 5.818182-13.963636 13.963636-13.963636h11.636364c8.145455 0 13.963636 5.818182 13.963636 13.963636v50.036364z m0-88.436364c0 8.145455-5.818182 13.963636-13.963636 13.963637h-11.636364c-8.145455 0-13.963636-5.818182-13.963636-13.963637V656.290909c0-8.145455 5.818182-13.963636 13.963636-13.963636h11.636364c8.145455 0 13.963636 5.818182 13.963636 13.963636v129.163636z m0-195.490909c0 8.145455-5.818182 13.963636-13.963636 13.963637h-11.636364c-8.145455 0-13.963636-5.818182-13.963636-13.963637v-128c0-8.145455 5.818182-13.963636 13.963636-13.963636h11.636364c8.145455 0 13.963636 5.818182 13.963636 13.963636v128z m0-194.327272c0 8.145455-5.818182 13.963636-13.963636 13.963636h-11.636364c-8.145455 0-13.963636-5.818182-13.963636-13.963636v-89.6c0-8.145455 5.818182-13.963636 13.963636-13.963637h11.636364c8.145455 0 13.963636 5.818182 13.963636 13.963637V395.636364z m0-195.490909c0 8.145455-5.818182 13.963636-13.963636 13.963636h-11.636364c-8.145455 0-13.963636-5.818182-13.963636-13.963636v-50.036364c0-8.145455 5.818182-13.963636 13.963636-13.963636h11.636364c8.145455 0 13.963636 5.818182 13.963636 13.963636v50.036364zM814.545455 579.490909c-24.436364-15.127273-47.709091-30.254545-73.309091-46.545454-3.490909 34.909091-5.818182 67.490909-9.309091 100.072727-6.981818 65.163636-24.436364 80.290909-90.763637 80.290909-6.981818 0-13.963636-1.163636-20.945454 0-25.6 4.654545-37.236364-5.818182-34.909091-32.581818h55.854545c33.745455 0 48.872727-10.472727 55.854546-44.218182l3.490909-17.454546c2.327273-18.618182 3.490909-37.236364 4.654545-60.50909-38.4 0-76.8 0-115.2 1.163636-4.654545 0-11.636364 10.472727-13.963636 17.454545-17.454545 57.018182-54.690909 96.581818-105.890909 125.672728-22.109091 12.8-36.072727 11.636364-46.545455-16.290909 54.690909-25.6 107.054545-58.181818 122.181819-124.509091-20.945455-16.290909-59.345455 16.290909-72.145455-26.763637-24.436364 15.127273-50.036364 30.254545-76.8 46.545455-6.981818-10.472727-12.8-19.781818-19.781818-30.254546 46.545455-24.436364 91.927273-48.872727 129.163636-94.254545h-112.872727v-32.581818h91.927273c54.690909 0 54.690909 0 75.636363-54.690909H418.909091V337.454545h79.127273c-13.963636-25.6-24.436364-47.709091-37.236364-70.981818 9.309091-3.490909 18.618182-6.981818 30.254545-10.472727 11.636364 22.109091 23.272727 43.054545 36.072728 64-6.981818 5.818182-12.8 9.309091-22.109091 16.290909h70.981818c6.981818-26.763636 13.963636-54.690909 22.109091-83.781818 10.472727 1.163636 19.781818 2.327273 33.745454 4.654545-5.818182 26.763636-11.636364 52.363636-17.454545 79.127273h90.763636c-4.654545-5.818182-8.145455-9.309091-12.8-13.963636 12.8-22.109091 24.436364-44.218182 38.4-67.490909 9.309091 3.490909 17.454545 6.981818 29.090909 10.472727-12.8 24.436364-25.6 46.545455-39.563636 70.981818h73.309091v32.581818H645.818182c-52.363636 0-52.363636 0-69.818182 54.690909h243.2v32.581819h-101.236364l-3.490909 6.981818c18.618182 15.127273 36.072727 32.581818 54.690909 46.545454 19.781818 13.963636 41.890909 25.6 66.327273 39.563637-5.818182 11.636364-12.8 19.781818-20.945454 30.254545zM596.945455 457.309091c-10.472727 2.327273-22.109091 0-33.745455 0-5.818182 0-13.963636 2.327273-17.454545 6.981818-17.454545 18.618182-34.909091 37.236364-55.854546 59.345455h237.381818c-29.090909-53.527273-70.981818-76.8-130.327272-66.327273z"
		fill="#FFA96F"></path>
</svg>
