<svg viewBox="0 0 1024 1024" version="1.1" xmlns="http://www.w3.org/2000/svg">
	<path
		d="M767.749756 491.98045c-64.729879 72.57087-153.483219 117.448029-255.916586 117.448028-102.433366 0-191.186706-44.877159-255.916585-117.448028C158.821766 571.891821 102.600196 691.008146 102.266536 816.797654c0 113.944607 92.256761 207.202346 204.866732 207.202346h409.733464c112.609971 0 204.866732-93.257739 204.866732-207.202346-0.16683-131.294884-61.726947-248.742913-153.983708-324.817204"
		fill="#FFA96F"></path>
	<path
		d="M258.419029 266.26002c0 146.976865 113.444119 266.26002 253.580971 266.260019s253.580971-119.116325 253.580971-266.260019c0-146.976865-113.444119-266.26002-253.580971-266.26002-139.970023 0-253.580971 119.116325-253.580971 266.26002"
		fill="#FFA96F"></path>
</svg>
